<svg width="30" height="30" viewBox="0 0 17 17" fill="none" xmlns="http://www.w3.org/2000/svg">
<path d="M15.4844 7.5625L14.125 6.20406V2.875C14.125 2.35937 13.7031 1.9375 13.1875 1.9375H12.25C11.7344 1.9375 11.3125 2.35937 11.3125 2.875V3.39344L9.4375 1.52031C9.18156 1.27844 8.94719 1 8.5 1C8.05281 1 7.81844 1.27844 7.5625 1.52031L1.51563 7.5625C1.22312 7.86719 1 8.08937 1 8.5C1 9.02781 1.405 9.4375 1.9375 9.4375H2.875V15.0625C2.875 15.5781 3.29687 16 3.8125 16H5.6875C6.20527 16 6.625 15.5803 6.625 15.0625V11.3125C6.625 10.7969 7.04687 10.375 7.5625 10.375H9.4375C9.95312 10.375 10.375 10.7969 10.375 11.3125V15.0625C10.375 15.5803 10.326 16 10.8437 16H13.1875C13.7031 16 14.125 15.5781 14.125 15.0625V9.4375H15.0625C15.595 9.4375 16 9.02781 16 8.5C16 8.08937 15.7769 7.86719 15.4844 7.5625Z" stroke="black" stroke-width="2" stroke-linejoin="round"/>
</svg>
