<svg width="30" height="30" viewBox="0 0 16 16" fill="none" xmlns="http://www.w3.org/2000/svg">
<path d="M3.18726 3.17155V1.86862C3.18726 1.38889 3.57901 1 4.06228 1H12.375C12.8582 1 13.25 1.38889 13.25 1.86862V5.34309M1.00039 13.2627L1.00046 6.6581C1.00046 5.99656 1.00021 5.0543 1 4.37204C0.999851 3.89218 1.39167 3.50364 1.87505 3.50364H6.04468L8.06089 5.64163H14.125C14.6082 5.64163 15 6.03054 15 6.51027L14.9998 13.2628C14.9998 14.2222 14.2163 15 13.2497 15L2.75043 15C1.7839 15 1.00038 14.2222 1.00039 13.2627Z" stroke="#323232" stroke-width="2" stroke-linecap="round" stroke-linejoin="round"/>
</svg>
