<svg width="30" height="30" viewBox="0 0 20 17" fill="none" xmlns="http://www.w3.org/2000/svg">
<path d="M13.2825 15.9998L13.2828 13.1876C13.2829 11.6342 11.9857 10.3749 10.3855 10.3749H3.89761C2.29761 10.3749 1.00051 11.6339 1.00033 13.1871L1 15.9998M18.3074 16L18.3077 13.1878C18.3078 11.6344 17.0106 10.3751 15.4104 10.3751M12.7245 1.55252C13.436 2.06498 13.8971 2.88653 13.8971 3.81262C13.8971 4.73872 13.436 5.56027 12.7245 6.07273M10.099 3.81247C10.099 5.36576 8.80182 6.62494 7.20169 6.62494C5.60156 6.62494 4.3044 5.36576 4.3044 3.81247C4.3044 2.25919 5.60156 1 7.20169 1C8.80182 1 10.099 2.25919 10.099 3.81247Z" stroke="#323232" stroke-width="2" stroke-linecap="round" stroke-linejoin="round"/>
</svg>
