<svg width="30" height="30" viewBox="0 0 15 15" fill="none" xmlns="http://www.w3.org/2000/svg">
<path d="M7.5 14.35C7.26202 14.35 6.98406 14.2425 6.67458 13.9433C6.36197 13.6411 6.05076 13.1724 5.77531 12.5428C5.53973 12.0043 5.33965 11.3695 5.18788 10.6623C5.9491 10.5541 6.77643 10.4937 7.64697 10.4937C8.41028 10.4937 9.13974 10.5401 9.82021 10.6243C9.66749 11.3468 9.46448 11.9947 9.22469 12.5428C8.94924 13.1724 8.63803 13.6411 8.32542 13.9433C8.01594 14.2425 7.73798 14.35 7.5 14.35ZM7.64697 9.19375C6.71789 9.19375 5.81837 9.25828 4.97691 9.37934C4.90669 8.78343 4.86875 8.15346 4.86875 7.5C4.86875 6.84654 4.90669 6.21657 4.97691 5.62066C5.81837 5.74172 6.71789 5.80625 7.64697 5.80625C8.46971 5.80625 9.26998 5.75562 10.0276 5.65975C10.095 6.2441 10.1313 6.86081 10.1313 7.5C10.1313 8.13919 10.095 8.7559 10.0276 9.34025C9.26998 9.24438 8.46971 9.19375 7.64697 9.19375ZM3.69621 5.38265C3.61281 6.05946 3.56875 6.76974 3.56875 7.5C3.56875 8.23026 3.61281 8.94054 3.69621 9.61735C2.78624 9.82778 1.97784 10.1109 1.31768 10.4535C0.88968 9.55922 0.65 8.5576 0.65 7.5C0.65 6.4424 0.88968 5.44078 1.31768 4.54649C1.97784 4.88914 2.78624 5.17222 3.69621 5.38265ZM5.18788 4.33766C5.33965 3.63048 5.53973 2.9957 5.77531 2.45723C6.05076 1.82762 6.36197 1.35892 6.67458 1.0567C6.98406 0.757508 7.26202 0.65 7.5 0.65C7.73798 0.65 8.01594 0.757508 8.32542 1.0567C8.63803 1.35892 8.94924 1.82762 9.22469 2.45723C9.46448 3.00533 9.66749 3.65321 9.82021 4.37567C9.13974 4.4599 8.41028 4.50625 7.64697 4.50625C6.77643 4.50625 5.9491 4.44592 5.18788 4.33766ZM11.4312 7.5C11.4312 6.7924 11.3899 6.10356 11.3114 5.44575C12.2283 5.25341 13.052 4.98905 13.7375 4.66474C14.1309 5.52872 14.35 6.48877 14.35 7.5C14.35 8.51123 14.1309 9.47128 13.7375 10.3353C13.052 10.011 12.2283 9.74659 11.3114 9.55425C11.3899 8.89644 11.4312 8.2076 11.4312 7.5ZM13.0858 3.53408C12.5377 3.78259 11.867 3.99712 11.1034 4.16095C10.9329 3.33784 10.7001 2.58622 10.4157 1.93617C10.2893 1.64727 10.1507 1.37382 9.99992 1.1205C11.2491 1.6104 12.3194 2.45661 13.0858 3.53408ZM11.1034 10.839C11.867 11.0029 12.5377 11.2174 13.0858 11.4659C12.3194 12.5434 11.2491 13.3896 9.99992 13.8795C10.1507 13.6262 10.2893 13.3527 10.4157 13.0638C10.7001 12.4138 10.9329 11.6622 11.1034 10.839ZM4.5843 13.0638C4.7107 13.3527 4.84931 13.6262 5.00008 13.8795C3.79139 13.4055 2.75017 12.5979 1.9897 11.57C2.51094 11.3089 3.16141 11.0807 3.90986 10.9025C4.07918 11.7008 4.30723 12.4305 4.5843 13.0638ZM5.00008 1.1205C4.84931 1.37382 4.7107 1.64727 4.5843 1.93617C4.30723 2.56947 4.07918 3.29918 3.90986 4.09748C3.16141 3.91927 2.51094 3.69114 1.9897 3.42997C2.75017 2.4021 3.7914 1.59451 5.00008 1.1205Z" stroke="#323232" stroke-width="1.3"/>
</svg>
